<svg xmlns="http://www.w3.org/2000/svg" xmlns:xlink="http://www.w3.org/1999/xlink" viewBox="0 0 392.59 202.55"><defs><style>.cls-1,.cls-12{fill:none;}.cls-2{fill:#488fe3;opacity:0.5;}.cls-3{fill:#fde3ec;stroke:#000;stroke-width:2px;}.cls-12,.cls-3{stroke-miterlimit:10;}.cls-4{fill:url(#linear-gradient);}.cls-5{fill:#a26539;}.cls-6{clip-path:url(#clip-path);}.cls-7{fill:#f7fcf5;}.cls-8{clip-path:url(#clip-path-2);}.cls-9{fill:#fff;}.cls-10{opacity:0.29;}.cls-11{clip-path:url(#clip-path-3);}.cls-12{stroke:#f3f8f1;}.cls-13{clip-path:url(#clip-path-4);}.cls-14{clip-path:url(#clip-path-5);}.cls-15{clip-path:url(#clip-path-6);}.cls-16{fill:#0958a3;}.cls-17{font-size:11px;font-family:Arial-BoldMT, Arial;font-weight:700;}</style><linearGradient id="linear-gradient" x1="22.75" y1="97.08" x2="277.61" y2="97.08" gradientUnits="userSpaceOnUse"><stop offset="0.01" stop-color="#fbcbd7"/><stop offset="0.07" stop-color="#f5cad9"/><stop offset="0.15" stop-color="#e3c9e0"/><stop offset="0.25" stop-color="#c5c6eb"/><stop offset="0.31" stop-color="#b2c4f2"/><stop offset="0.59" stop-color="#8fc0ff"/><stop offset="0.67" stop-color="#b5c3f4"/><stop offset="0.76" stop-color="#d5c6ea"/><stop offset="0.85" stop-color="#ecc8e4"/><stop offset="0.93" stop-color="#facadf"/><stop offset="1" stop-color="#ffcade"/></linearGradient><clipPath id="clip-path"><rect class="cls-1" x="10.54" y="131.5" width="291.18" height="66.07"/></clipPath><clipPath id="clip-path-2"><rect class="cls-1" x="10.54" y="-1.87" width="291.18" height="43.35"/></clipPath><clipPath id="clip-path-3"><polygon class="cls-1" points="276.55 168.81 275.46 171.8 273.41 177.03 24.04 177.95 24.14 170.23 23.98 169.75 23.8 168.72 23.75 132.07 276.47 132.07 276.55 168.81"/></clipPath><clipPath id="clip-path-4"><polygon class="cls-1" points="276.55 155.47 275.46 158.46 273.41 163.69 24.04 164.6 24.14 156.88 23.98 156.4 23.8 155.37 23.75 126.95 276.47 126.95 276.55 155.47"/></clipPath><clipPath id="clip-path-5"><polygon class="cls-1" points="276.55 142.11 275.46 145.09 273.41 150.33 24.04 151.24 24.14 143.52 23.98 143.04 23.8 142.01 23.75 137.85 276.47 137.85 276.55 142.11"/></clipPath><clipPath id="clip-path-6"><polygon class="cls-1" points="276.55 31.27 275.46 34.26 273.41 39.49 24.04 40.4 24.14 32.68 23.98 32.2 23.8 31.17 23.75 2.75 276.47 2.75 276.55 31.27"/></clipPath></defs><title>photo-id-back-sample</title><g id="Layer_8" data-name="Layer 8"><polygon class="cls-2" points="272.69 112.54 306.32 142.61 303.88 83.07 272.69 112.54"/><path class="cls-3" d="M370.39,111.17A40.15,40.15,0,1,1,330.25,71,40.14,40.14,0,0,1,370.39,111.17Z"/></g><g id="card"><rect class="cls-4" x="22.75" y="18.2" width="254.86" height="157.75" rx="8"/><path d="M269.61,19.2a7,7,0,0,1,7,7V168a7,7,0,0,1-7,7H30.75a7,7,0,0,1-7-7V26.2a7,7,0,0,1,7-7H269.61m0-2H30.75a9,9,0,0,0-9,9V168a9,9,0,0,0,9,9H269.61a9,9,0,0,0,9-9V26.2a9,9,0,0,0-9-9Z"/></g><g id="chip_logo" data-name="chip logo"><path class="cls-5" d="M41.06,99.35v10.58H55.61a7.31,7.31,0,0,1,14.53,0H84.21v2.7H70a7.32,7.32,0,0,1-14.19,0H41.06v9.62H84.21V99.35Z"/><rect class="cls-5" x="41.06" y="109.93" height="2.7"/><circle class="cls-5" cx="62.63" cy="110.8" r="5.29"/></g><g id="wavy_bar_bottom" data-name="wavy bar bottom"><g class="cls-6"><rect class="cls-7" x="23.75" y="20.2" width="252.86" height="155.75" rx="7"/></g><g class="cls-8"><rect class="cls-7" x="23.75" y="19.75" width="252.86" height="155.75" rx="7"/></g></g><g id="head"><ellipse class="cls-9" cx="237.97" cy="63.91" rx="27.99" ry="17.56"/><g class="cls-10"><ellipse cx="224.85" cy="59.17" rx="7.95" ry="9.38"/><path d="M237.41,72.49v6.1H211.7V72.53l7.31-4s5.56,4,11.12,0Z"/></g></g><g id="zig_zags" data-name="zig zags"><g class="cls-11"><path class="cls-12" d="M285.05,164.89c-14.89-.45-14.84-4-29.74-4s-14.9,4-29.81,4-14.9-4-29.8-4-14.91,4-29.81,4-14.91-4-29.82-4-14.9,4-29.81,4-14.9-4-29.81-4-14.91,4-29.81,4-15-4.44-29.88-4c-.44,0,2.06,2.44,2.06,2.89s-4,.44-4,.89,4,.44,4,.89-4,.44-4,.89,4,.44,4,.88-4,.45-4,.89,4,.45,4,.9-4,.45-4,.89,1.61-1.11,2.06-1.1c14.89.45,14.84,4,29.74,4s14.91-4,29.81-4,14.9,4,29.81,4,14.9-4,29.81-4,14.9,4,29.81,4,14.9-4,29.81-4,14.91,4,29.81,4,14.91-4,29.82-4,15,4.44,29.87,4c.45,0-2.06-2.44-2.06-2.89s4-.44,4-.89-4-.44-4-.89,4-.44,4-.89-4-.44-4-.88,4-.45,4-.9-4-.44-4-.89.62.62,1,.84C284.66,165.83,285.5,164.9,285.05,164.89Z"/><path class="cls-12" d="M16.82,164.9c14.9,0,14.9,4,29.8,4s14.91-4,29.81-4,14.9,4,29.81,4,14.9-4,29.81-4,14.9,4,29.81,4,14.9-4,29.81-4,14.91,4,29.81,4,14.91-4,29.82-4,14.9,4,29.81,4"/></g><g class="cls-13"><path class="cls-12" d="M285.05,151.54c-14.89-.44-14.84-4-29.74-4s-14.9,4-29.81,4-14.9-4-29.8-4-14.91,4-29.81,4-14.91-4-29.82-4-14.9,4-29.81,4-14.9-4-29.81-4-14.91,4-29.81,4-15-4.44-29.88-4c-.44,0,2.06,2.44,2.06,2.88s-4,.45-4,.89,4,.45,4,.89-4,.45-4,.89,4,.45,4,.89-4,.44-4,.89,4,.45,4,.89-4,.45-4,.9,1.61-1.12,2.06-1.1c14.89.44,14.84,4,29.74,4s14.91-4,29.81-4,14.9,4,29.81,4,14.9-4,29.81-4,14.9,4,29.81,4,14.9-4,29.81-4,14.91,4,29.81,4,14.91-4,29.82-4,15,4.44,29.87,4c.45,0-2.06-2.44-2.06-2.88s4-.45,4-.89-4-.45-4-.89,4-.45,4-.89-4-.45-4-.89,4-.44,4-.89-4-.45-4-.89.62.62,1,.84C284.66,152.49,285.5,151.56,285.05,151.54Z"/><path class="cls-12" d="M16.82,151.56c14.9,0,14.9,4,29.8,4s14.91-4,29.81-4,14.9,4,29.81,4,14.9-4,29.81-4,14.9,4,29.81,4,14.9-4,29.81-4,14.91,4,29.81,4,14.91-4,29.82-4,14.9,4,29.81,4"/></g><g class="cls-14"><path class="cls-12" d="M285.05,138.18c-14.89-.45-14.84-4-29.74-4s-14.9,4-29.81,4-14.9-4-29.8-4-14.91,4-29.81,4-14.91-4-29.82-4-14.9,4-29.81,4-14.9-4-29.81-4-14.91,4-29.81,4-15-4.44-29.88-4c-.44,0,2.06,2.45,2.06,2.89s-4,.45-4,.89,4,.45,4,.89-4,.45-4,.89,4,.44,4,.89-4,.44-4,.89,4,.45,4,.89-4,.45-4,.9,1.61-1.12,2.06-1.11c14.89.45,14.84,4,29.74,4s14.91-4,29.81-4,14.9,4,29.81,4,14.9-4,29.81-4,14.9,4,29.81,4,14.9-4,29.81-4,14.91,4,29.81,4,14.91-4,29.82-4,15,4.45,29.87,4c.45,0-2.06-2.44-2.06-2.88s4-.45,4-.9-4-.44-4-.88,4-.45,4-.89-4-.45-4-.89,4-.45,4-.89-4-.45-4-.9.62.62,1,.85C284.66,139.12,285.5,138.2,285.05,138.18Z"/><path class="cls-12" d="M16.82,138.19c14.9,0,14.9,4,29.8,4s14.91-4,29.81-4,14.9,4,29.81,4,14.9-4,29.81-4,14.9,4,29.81,4,14.9-4,29.81-4,14.91,4,29.81,4,14.91-4,29.82-4,14.9,4,29.81,4"/></g><g class="cls-15"><path class="cls-12" d="M285.05,27.34c-14.89-.44-14.84-4-29.74-4s-14.9,4-29.81,4-14.9-4-29.8-4-14.91,4-29.81,4-14.91-4-29.82-4-14.9,4-29.81,4-14.9-4-29.81-4-14.91,4-29.81,4-15-4.44-29.88-4c-.44,0,2.06,2.44,2.06,2.88s-4,.45-4,.89,4,.45,4,.89-4,.45-4,.89,4,.45,4,.89-4,.44-4,.89,4,.45,4,.89-4,.45-4,.9,1.61-1.12,2.06-1.1c14.89.44,14.84,4,29.74,4s14.91-4,29.81-4,14.9,4,29.81,4,14.9-4,29.81-4,14.9,4,29.81,4,14.9-4,29.81-4,14.91,4,29.81,4,14.91-4,29.82-4,15,4.44,29.87,4c.45,0-2.06-2.44-2.06-2.88s4-.45,4-.89-4-.45-4-.89,4-.45,4-.89-4-.45-4-.89,4-.44,4-.89-4-.45-4-.89.62.62,1,.84C284.66,28.29,285.5,27.36,285.05,27.34Z"/><path class="cls-12" d="M16.82,27.36c14.9,0,14.9,4,29.8,4s14.91-4,29.81-4,14.9,4,29.81,4,14.9-4,29.81-4,14.9,4,29.81,4,14.9-4,29.81-4,14.91,4,29.81,4,14.91-4,29.82-4,14.9,4,29.81,4"/></g></g><g id="blackblue_strips" data-name="blackblue strips"><rect class="cls-16" x="105.79" y="102.96" width="21.11" height="4.16"/><rect class="cls-16" x="105.79" y="54.44" width="43.82" height="4.16"/><rect x="105.79" y="63.44" width="27.1" height="4.16"/><rect x="105.79" y="68.44" width="16.15" height="4.16"/><rect class="cls-16" x="105.79" y="81.44" width="8.11" height="4.16"/><rect class="cls-16" x="135.59" y="81.44" width="8.11" height="4.16"/><rect x="135.24" y="90.44" width="25.11" height="4.16"/><rect x="105.79" y="90.44" width="10.13" height="4.16"/><rect x="105.79" y="111.96" width="54.09" height="4.16"/></g><g id="call-out_no." data-name="call-out no."><text class="cls-17" transform="translate(294.72 114.47)">AB 12 34 56 C</text></g></svg>